<svg width="300" height="80" viewBox="0 0 300 80" fill="none" xmlns="http://www.w3.org/2000/svg">
<g clip-path="url(#clip0)">
<path d="M100.167 43.9502L93.6469 30.1035H89.3083L100.167 51.7982L111.001 30.1035H106.686L100.167 43.9502Z" fill="#5DCB79"/>
<path d="M119.56 44.8279C119.56 47.3175 118.208 47.8865 116.62 47.8865C115.174 47.8865 114.51 47.1752 114.51 45.1125V37.0273H110.598V45.9897C110.598 49.1432 111.831 50.9451 114.889 50.9451C117.165 50.9451 118.73 49.9967 119.583 48.3607V50.3287H123.495V37.0273H119.583V44.8279H119.56Z" fill="#5DCB79"/>
<path d="M129.802 44.6844H140.328C140.375 44.139 140.375 43.6411 140.375 43.404C140.375 39.2073 137.578 36.291 133.239 36.291C128.758 36.291 125.771 39.6578 125.771 43.6648C125.771 47.6955 128.45 50.8964 133.239 50.8964C137.27 50.8964 139.166 48.8099 140.209 46.6523L136.511 45.8224C135.942 46.9842 134.899 47.8852 133.239 47.8852C131.532 47.8615 130.157 46.7946 129.802 44.6844ZM136.226 41.8392H129.896C130.323 40.2269 131.817 39.2073 133.263 39.2073C134.899 39.1836 135.895 40.132 136.226 41.8392Z" fill="#5DCB79"/>
<path d="M153.628 43.2155L150.499 45.4679C151.779 48.7873 154.576 51.2057 158.488 51.2057C163.087 51.2057 165.743 49.0955 165.743 44.5432C165.743 40.8682 162.353 38.924 160.266 38.0941C157.943 37.1457 155.928 36.7901 155.928 34.8933C155.928 33.7078 156.757 32.8779 158.251 32.8779C160.266 32.8779 161.309 34.3716 162.187 36.055L165.174 33.7315C164.368 31.6687 162.376 29.2266 158.512 29.2266C154.647 29.2266 151.779 31.645 151.779 35.0118C151.779 38.6869 154.956 40.2754 156.923 41.0816C159.247 42.03 161.309 42.7413 161.309 45.0411C161.309 46.4874 160.337 47.507 158.583 47.507C156.378 47.507 154.837 45.9895 153.628 43.2155Z" fill="#5DCB79"/>
<path d="M168.778 32.4023V37.0258H166.596V40.3452H168.778V50.3271H172.689V40.3452H174.871V37.0258H172.689V32.4023H168.778Z" fill="#5DCB79"/>
<path d="M179.375 43.6904C179.375 41.2008 180.869 39.636 183.192 39.636C185.515 39.636 187.009 41.2008 187.009 43.6904C187.009 46.1799 185.515 47.7448 183.192 47.7448C180.869 47.7211 179.375 46.1799 179.375 43.6904ZM175.439 43.6904C175.439 48.2901 179.138 51.0642 183.192 51.0642C187.246 51.0642 190.945 48.2901 190.945 43.6904C190.945 39.0906 187.246 36.3166 183.192 36.3166C179.138 36.2928 175.439 39.0906 175.439 43.6904Z" fill="#5DCB79"/>
<path d="M201.898 41.0099L203.889 37.8802C203.202 37.0504 202.206 36.5762 200.689 36.5762C199.456 36.5762 198.176 37.3823 197.298 38.6864V37.003H193.244V50.3043H197.298V42.7882C197.298 40.8677 198.081 40.3224 199.669 40.3224C200.428 40.3461 201.281 40.5595 201.898 41.0099Z" fill="#5DCB79"/>
<path d="M208.63 44.6844H219.157C219.204 44.139 219.204 43.6411 219.204 43.404C219.204 39.2073 216.407 36.291 212.068 36.291C207.587 36.291 204.6 39.6578 204.6 43.6648C204.6 47.6955 207.279 50.8964 212.068 50.8964C216.098 50.8964 217.995 48.8099 219.038 46.6523L215.34 45.8224C214.771 46.9842 213.728 47.8852 212.068 47.8852C210.361 47.8615 208.986 46.7946 208.63 44.6844ZM215.055 41.8392H208.725C209.152 40.2269 210.646 39.2073 212.092 39.2073C213.728 39.1836 214.747 40.132 215.055 41.8392Z" fill="#5DCB79"/>
<path d="M229.565 31.6687L231.035 28.539C230.608 27.9699 229.351 27.1875 227.526 27.1875C223.946 27.1875 222.097 29.2503 222.097 32.0955V37.0034H220.224V40.3228H222.097V50.3048H226.009V40.3228H229.328V37.0034H226.009V32.8305C226.009 31.2182 226.815 30.6729 227.692 30.6729C228.688 30.6729 229.162 31.0048 229.565 31.6687Z" fill="#5DCB79"/>
<path d="M240.257 41.0099L242.249 37.8802C241.561 37.0504 240.566 36.5762 239.048 36.5762C237.815 36.5762 236.535 37.3823 235.658 38.6864V37.003H231.628V50.3043H235.658V42.7882C235.658 40.8677 236.44 40.3224 238.029 40.3224C238.787 40.3461 239.641 40.5595 240.257 41.0099Z" fill="#5DCB79"/>
<path d="M246.919 43.6904C246.919 41.2008 248.413 39.636 250.736 39.636C253.06 39.636 254.553 41.2008 254.553 43.6904C254.553 46.1799 253.06 47.7448 250.736 47.7448C248.413 47.7211 246.919 46.1799 246.919 43.6904ZM242.984 43.6904C242.984 48.2901 246.682 51.0642 250.736 51.0642C254.79 51.0642 258.489 48.2901 258.489 43.6904C258.489 39.0906 254.79 36.3166 250.736 36.3166C246.682 36.2928 242.984 39.0906 242.984 43.6904Z" fill="#5DCB79"/>
<path d="M264.7 42.2428C264.7 40.3223 266.052 39.4687 267.64 39.4687C269.086 39.4687 269.75 40.18 269.75 42.2428V50.3516H273.662V41.3655C273.662 38.2121 271.836 36.4102 269.086 36.4102C267 36.4102 265.53 37.4297 264.7 38.9945V37.0266H260.789V50.3279H264.7V42.2428Z" fill="#5DCB79"/>
<path d="M277.028 32.4023V37.0258H274.847V40.3452H277.028V50.3271H280.94V40.3452H283.121V37.0258H280.94V32.4023H277.028Z" fill="#5DCB79"/>
<path d="M65.6693 15.1956C65.6207 14.6844 65.2068 14.2949 64.6957 14.2949H24.6292C24.1181 14.2949 23.7043 14.6844 23.6556 15.1956L20.2964 55.8497C20.2477 56.4096 20.6859 56.8965 21.2701 56.8965H68.2252C68.7851 56.8965 69.2476 56.4096 69.1989 55.8497L65.6693 15.1956ZM43.7375 52.3199C36.7271 52.3199 31.0311 45.4549 31.0311 37.0563C31.0311 36.6181 31.3962 36.253 31.8344 36.253C32.2725 36.253 32.6377 36.6181 32.6377 37.0563C32.6377 44.6029 37.6277 50.7375 43.7618 50.7375C49.8959 50.7375 54.886 44.6029 54.886 37.0563C54.886 36.6181 55.2511 36.253 55.6892 36.253C56.1274 36.253 56.4925 36.6181 56.4925 37.0563C56.4438 45.4549 50.7479 52.3199 43.7375 52.3199ZM60.3142 36.5695C59.9977 36.8859 59.5109 36.8859 59.1944 36.5695L55.6892 33.064L52.1354 36.6181C51.9893 36.7642 51.7702 36.8616 51.5755 36.8616C51.3808 36.8616 51.1617 36.7886 51.0156 36.6181C50.6992 36.3017 50.6992 35.8148 51.0156 35.4983L55.1294 31.3842C55.2754 31.2382 55.4702 31.1408 55.6892 31.1408C55.9083 31.1408 56.1031 31.2138 56.2491 31.3842L60.3142 35.4496C60.6306 35.7661 60.6306 36.253 60.3142 36.5695Z" fill="#53C174"/>
<rect x="26.0181" y="28.166" width="36.6263" height="30.7038" fill="white"/>
<path d="M72.9234 66.4401L68.907 17.7526C68.8583 17.1197 68.3228 16.6328 67.6899 16.6328H21.7571C21.1242 16.6328 20.5887 17.1197 20.54 17.7526L16.6697 66.4401C16.621 67.1461 17.1809 67.7547 17.8868 67.7547H71.7306C72.4365 67.7547 72.9964 67.1461 72.9234 66.4401ZM43.7377 52.3207C36.7273 52.3207 31.0313 45.4558 31.0313 37.0572C31.0313 36.619 31.3964 36.2539 31.8346 36.2539C32.2727 36.2539 32.6379 36.619 32.6379 37.0572C32.6379 44.6038 37.6279 50.7384 43.762 50.7384C49.8961 50.7384 54.8862 44.6038 54.8862 37.0572C54.8862 36.619 55.2513 36.2539 55.6894 36.2539C56.1276 36.2539 56.4927 36.619 56.4927 37.0572C56.444 45.4558 50.7481 52.3207 43.7377 52.3207ZM60.3144 36.5703C59.9979 36.8868 59.5111 36.8868 59.1946 36.5703L55.6894 33.0648L52.1356 36.619C51.9895 36.7651 51.7704 36.8625 51.5757 36.8625C51.381 36.8625 51.1619 36.7894 51.0158 36.619C50.6994 36.3026 50.6994 35.8157 51.0158 35.4992L55.1296 31.3851C55.2756 31.2391 55.4704 31.1417 55.6894 31.1417C55.9085 31.1417 56.1033 31.2147 56.2493 31.3851L60.3144 35.4505C60.6308 35.767 60.6308 36.2539 60.3144 36.5703Z" fill="url(#paint0_linear)"/>
</g>
<defs>
<linearGradient id="paint0_linear" x1="70.6978" y1="69.3328" x2="18.9346" y2="18.9995" gradientUnits="userSpaceOnUse">
<stop stop-color="#5DCB79"/>
<stop offset="1" stop-color="#61D67F"/>
</linearGradient>
<clipPath id="clip0">
<rect width="300" height="80" fill="white"/>
</clipPath>
</defs>
</svg>
